# Blender v2.73 (sub 0) OBJ File: ''
# www.blender.org
o Plane_Plane.001
v -1.000000 0.000000 1.361188
v 1.000000 0.000000 1.361188
v -1.000000 0.000000 -1.361188
v 1.000000 0.000000 -1.361188
v -1.000000 0.001000 1.361188
v 1.000000 0.001000 1.361188
v -1.000000 0.001000 -1.361188
v 1.000000 0.001000 -1.361188
vt 0.499625 0.000000
vt 0.999250 0.000000
vt 0.999250 0.680594
vt 0.499625 0.680594
vt 0.000000 0.680594
vt 1.000000 1.000000
vt 0.999750 1.000000
vt 0.999750 0.500000
vt 0.999500 0.680594
vt 0.999750 0.000000
vt 1.000000 0.000000
vt 1.000000 0.500000
vt 0.999750 0.680594
vt 0.999500 0.000000
vt 0.000000 0.000000
vn 0.000000 -1.000000 0.000000
vn 0.000000 1.000000 0.000000
vn 0.000000 0.000000 -1.000000
vn 1.000000 0.000000 0.000000
vn 0.000000 0.000000 1.000000
vn -1.000000 0.000000 0.000000
s off
f 3/1/1 4/2/1 2/3/1
f 6/1/2 8/4/2 7/5/2
f 3/6/3 7/7/3 8/8/3
f 4/9/4 8/3/4 6/2/4
f 2/10/5 6/11/5 5/12/5
f 1/13/6 5/9/6 7/14/6
f 1/4/1 3/1/1 2/3/1
f 5/15/2 6/1/2 7/5/2
f 4/12/3 3/6/3 8/8/3
f 2/14/4 4/9/4 6/2/4
f 1/8/5 2/10/5 5/12/5
f 3/10/6 1/13/6 7/14/6
